{
  "accessors": [
    {
      "bufferView": 2,
      "componentType": 5126,
      "count": 2044,
      "max": [
        56.500011444091797,
        13.549994468688965,
        101.5
      ],
      "min": [
        -56.500011444091797,
        -33.450000762939453,
        3.9999980926513672
      ],
      "type": "VEC3"
    },
    {
      "bufferView": 2,
      "byteOffset": 24528,
      "componentType": 5126,
      "count": 2044,
      "max": [
        1,
        1,
        1
      ],
      "min": [
        -1,
        -1,
        -1
      ],
      "type": "VEC3"
    },
    {
      "bufferView": 3,
      "componentType": 5126,
      "count": 2044,
      "max": [
        1,
        1,
        1,
        1
      ],
      "min": [
        -1,
        -1,
        -1,
        -1
      ],
      "type": "VEC4"
    },
    {
      "bufferView": 1,
      "componentType": 5126,
      "count": 2044,
      "max": [
        0.99750697612762451,
        0.98635697364807129
      ],
      "min": [
        0.0024880000855773687,
        0.0024880000855773687
      ],
      "type": "VEC2"
    },
    {
      "bufferView": 0,
      "componentType": 5125,
      "count": 4632,
      "max": [
        2043
      ],
      "min": [
        0
      ],
      "type": "SCALAR"
    },
    {
      "bufferView": 2,
      "byteOffset": 49056,
      "componentType": 5126,
      "count": 24762,
      "max": [
        55.930164337158203,
        13.55000114440918,
        101.5
      ],
      "min": [
        -55.930164337158203,
        -32.849998474121094,
        0
      ],
      "type": "VEC3"
    },
    {
      "bufferView": 2,
      "byteOffset": 346200,
      "componentType": 5126,
      "count": 24762,
      "max": [
        1,
        1,
        1
      ],
      "min": [
        -1,
        -1,
        -1
      ],
      "type": "VEC3"
    },
    {
      "bufferView": 3,
      "byteOffset": 32704,
      "componentType": 5126,
      "count": 24762,
      "max": [
        1,
        1,
        1,
        1
      ],
      "min": [
        -1,
        -1,
        -1,
        -1
      ],
      "type": "VEC4"
    },
    {
      "bufferView": 1,
      "byteOffset": 16352,
      "componentType": 5126,
      "count": 24762,
      "max": [
        0.997344970703125,
        0.99576997756958008
      ],
      "min": [
        0.0024890000931918621,
        0.002486000070348382
      ],
      "type": "VEC2"
    },
    {
      "bufferView": 0,
      "byteOffset": 18528,
      "componentType": 5125,
      "count": 129336,
      "max": [
        24761
      ],
      "min": [
        0
      ],
      "type": "SCALAR"
    },
    {
      "bufferView": 2,
      "byteOffset": 643344,
      "componentType": 5126,
      "count": 424,
      "max": [
        36.999984741210938,
        13.841096878051758,
        99.200004577636719
      ],
      "min": [
        -37.000011444091797,
        7.3410968780517578,
        95.800003051757812
      ],
      "type": "VEC3"
    },
    {
      "bufferView": 2,
      "byteOffset": 648432,
      "componentType": 5126,
      "count": 424,
      "max": [
        1,
        1,
        1
      ],
      "min": [
        -1,
        -1,
        -1
      ],
      "type": "VEC3"
    },
    {
      "bufferView": 0,
      "byteOffset": 535872,
      "componentType": 5125,
      "count": 1296,
      "max": [
        423
      ],
      "min": [
        0
      ],
      "type": "SCALAR"
    }
  ],
  "asset": {
    "extras": {
      "author": "Interiors3D (https://sketchfab.com/Interiors3D)",
      "license": "CC-BY-4.0 (http://creativecommons.org/licenses/by/4.0/)",
      "source": "https://sketchfab.com/3d-models/pbcf00-5b2f22c1c2974ff989170cc4a2a5df37",
      "title": "PBCF00"
    },
    "generator": "Sketchfab-8.85.0",
    "version": "2.0"
  },
  "bufferViews": [
    {
      "buffer": 0,
      "byteLength": 541056,
      "byteOffset": 0,
      "name": "floatBufferViews",
      "target": 34963
    },
    {
      "buffer": 0,
      "byteLength": 214448,
      "byteOffset": 541056,
      "byteStride": 8,
      "name": "floatBufferViews",
      "target": 34962
    },
    {
      "buffer": 0,
      "byteLength": 653520,
      "byteOffset": 755504,
      "byteStride": 12,
      "name": "floatBufferViews",
      "target": 34962
    },
    {
      "buffer": 0,
      "byteLength": 428896,
      "byteOffset": 1409024,
      "byteStride": 16,
      "name": "floatBufferViews",
      "target": 34962
    }
  ],
  "buffers": [
    {
      "byteLength": 1837920,
      "uri": "scene.bin"
    }
  ],
  "images": [
    {
      "uri": "textures/Harmonie_baseColor.jpeg"
    },
    {
      "uri": "textures/Harmonie_metallicRoughness.png"
    },
    {
      "uri": "textures/Harmonie_normal.png"
    }
  ],
  "materials": [
    {
      "doubleSided": true,
      "name": "Harmonie",
      "normalTexture": {
        "index": 2,
        "scale": 1,
        "texCoord": 0
      },
      "pbrMetallicRoughness": {
        "baseColorFactor": [
          0.90000000000000002,
          0.90000000000000002,
          0.90000000000000002,
          1
        ],
        "baseColorTexture": {
          "index": 0,
          "texCoord": 0
        },
        "metallicFactor": 0,
        "metallicRoughnessTexture": {
          "index": 1,
          "texCoord": 0
        },
        "roughnessFactor": 1
      }
    },
    {
      "doubleSided": true,
      "name": "metal",
      "pbrMetallicRoughness": {
        "baseColorFactor": [
          0.52099557320435408,
          0.52099557320435408,
          0.52099557320435408,
          1
        ],
        "metallicFactor": 1,
        "roughnessFactor": 0.22899878254809039
      }
    }
  ],
  "meshes": [
    {
      "primitives": [
        {
          "attributes": {
            "NORMAL": 1,
            "POSITION": 0,
            "TANGENT": 2,
            "TEXCOORD_0": 3
          },
          "indices": 4,
          "material": 0,
          "mode": 4
        }
      ]
    },
    {
      "primitives": [
        {
          "attributes": {
            "NORMAL": 6,
            "POSITION": 5,
            "TANGENT": 7,
            "TEXCOORD_0": 8
          },
          "indices": 9,
          "material": 0,
          "mode": 4
        }
      ]
    },
    {
      "primitives": [
        {
          "attributes": {
            "NORMAL": 11,
            "POSITION": 10
          },
          "indices": 12,
          "material": 1,
          "mode": 4
        }
      ]
    }
  ],
  "nodes": [
    {
      "children": [
        1
      ],
      "name": "RootNode (gltf orientation matrix)",
      "rotation": [
        -0.70710678118654746,
        -0,
        -0,
        0.70710678118654757
      ]
    },
    {
      "children": [
        2
      ],
      "name": "RootNode (model correction matrix)"
    },
    {
      "children": [
        3,
        4,
        5
      ],
      "name": "W25 - PBCF00 - Sketchfab - mesh.obj.cleaner.materialmerger.gles"
    },
    {
      "mesh": 0,
      "name": ""
    },
    {
      "mesh": 1,
      "name": ""
    },
    {
      "mesh": 2,
      "name": ""
    }
  ],
  "samplers": [
    {
      "magFilter": 9729,
      "minFilter": 9987,
      "wrapS": 10497,
      "wrapT": 10497
    }
  ],
  "scene": 0,
  "scenes": [
    {
      "name": "OSG_Scene",
      "nodes": [
        0
      ]
    }
  ],
  "textures": [
    {
      "sampler": 0,
      "source": 0
    },
    {
      "sampler": 0,
      "source": 1
    },
    {
      "sampler": 0,
      "source": 2
    }
  ]
}

